<svg xmlns="http://www.w3.org/2000/svg" width="1920" height="1080" viewBox="0 0 1920 1080">
<defs>
<linearGradient id="bg" x1="1" y1="0" x2="0" y2="1">
  <stop offset="0" stop-color="#8b45f7"/>
  <stop offset="0.45" stop-color="#482490"/>
  <stop offset="1" stop-color="#18092b"/>
</linearGradient>
<radialGradient id="glow" cx="0.68" cy="0.7" r="0.62">
  <stop offset="0" stop-color="#d86c54" stop-opacity="0.45"/>
  <stop offset="0.45" stop-color="#d86c54" stop-opacity="0.15"/>
  <stop offset="1" stop-color="#d86c54" stop-opacity="0"/>
</radialGradient>
<linearGradient id="gCapa1" x1="0" y1="0" x2="0.8" y2="1">
  <stop offset="0" stop-color="#b484f0"/>
  <stop offset="1" stop-color="#8b45f7"/>
</linearGradient>
<linearGradient id="gCapa2" x1="0" y1="0" x2="0.8" y2="1">
  <stop offset="0" stop-color="#8b45f7"/>
  <stop offset="1" stop-color="#6c30c0"/>
</linearGradient>
<linearGradient id="gCapa3" x1="0" y1="0" x2="0.8" y2="1">
  <stop offset="0" stop-color="#6c30c0"/>
  <stop offset="1" stop-color="#54249c"/>
</linearGradient>
<linearGradient id="gCapa4" x1="0" y1="0" x2="0.8" y2="1">
  <stop offset="0" stop-color="#54249c"/>
  <stop offset="1" stop-color="#3c0c6c"/>
</linearGradient>
<linearGradient id="gCapa5" x1="0" y1="0" x2="0.8" y2="1">
  <stop offset="0" stop-color="#3c0c6c"/>
  <stop offset="1" stop-color="#200c39"/>
</linearGradient>
<linearGradient id="gCapa6" x1="0" y1="0" x2="0.8" y2="1">
  <stop offset="0" stop-color="#200c39"/>
  <stop offset="1" stop-color="#18092b"/>
</linearGradient>
<filter id="soft" x="-10%" y="-10%" width="120%" height="120%"><feGaussianBlur stdDeviation="3"/></filter>
</defs>
<rect width="1920" height="1080" fill="url(#bg)"/>
<rect width="1920" height="1080" fill="url(#glow)"/>
<path d="M 0.0 -228.8 C 22.9 -212.8 91.4 -162.8 137.1 -132.8 C 182.9 -102.8 228.6 -74.2 274.3 -48.7 C 320.0 -23.2 365.7 -0.2 411.4 20.2 C 457.1 40.6 502.9 57.9 548.6 73.5 C 594.3 89.1 640.0 101.7 685.7 113.9 C 731.4 126.1 777.1 135.9 822.9 146.8 C 868.6 157.6 914.3 167.1 960.0 178.8 C 1005.7 190.6 1051.4 202.4 1097.1 217.1 C 1142.9 231.8 1188.6 248.0 1234.3 267.3 C 1280.0 286.5 1325.7 308.3 1371.4 332.7 C 1417.1 357.1 1462.9 384.5 1508.6 413.7 C 1554.3 442.8 1600.0 475.0 1645.7 507.5 C 1691.4 540.1 1737.1 575.0 1782.9 609.0 C 1828.6 642.9 1897.1 694.1 1920.0 711.2 L 1920 1080 L 0 1080 Z" fill="url(#gCapa1)"/>
<path d="M 0.0 54.2 C 22.9 63.3 91.4 92.9 137.1 109.0 C 182.9 125.0 228.6 138.2 274.3 150.5 C 320.0 162.9 365.7 172.8 411.4 183.1 C 457.1 193.3 502.9 202.0 548.6 212.1 C 594.3 222.2 640.0 231.9 685.7 243.8 C 731.4 255.8 777.1 268.4 822.9 283.9 C 868.6 299.3 914.3 316.5 960.0 336.6 C 1005.7 356.7 1051.4 379.3 1097.1 404.4 C 1142.9 429.5 1188.6 457.5 1234.3 487.1 C 1280.0 516.8 1325.7 549.2 1371.4 582.3 C 1417.1 615.3 1462.9 650.6 1508.6 685.3 C 1554.3 720.0 1600.0 756.1 1645.7 790.5 C 1691.4 824.9 1737.1 859.5 1782.9 891.7 C 1828.6 923.8 1897.1 968.1 1920.0 983.4 L 1920 1080 L 0 1080 Z" fill="url(#gCapa2)"/>
<path d="M 0.0 236.9 C 22.9 253.3 91.4 304.4 137.1 335.6 C 182.9 366.9 228.6 397.2 274.3 424.2 C 320.0 451.3 365.7 476.1 411.4 497.8 C 457.1 519.6 502.9 538.2 548.6 554.6 C 594.3 571.0 640.0 584.0 685.7 596.0 C 731.4 608.0 777.1 617.1 822.9 626.6 C 868.6 636.2 914.3 643.7 960.0 653.1 C 1005.7 662.5 1051.4 671.3 1097.1 682.9 C 1142.9 694.6 1188.6 707.1 1234.3 722.9 C 1280.0 738.7 1325.7 756.8 1371.4 777.9 C 1417.1 799.0 1462.9 823.2 1508.6 849.7 C 1554.3 876.2 1600.0 906.0 1645.7 936.8 C 1691.4 967.7 1737.1 1001.4 1782.9 1034.8 C 1828.6 1068.1 1897.1 1119.9 1920.0 1136.9 L 1920 1080 L 0 1080 Z" fill="url(#gCapa3)"/>
<path d="M 0.0 529.7 C 22.9 535.8 91.4 554.9 137.1 566.2 C 182.9 577.6 228.6 587.4 274.3 597.7 C 320.0 608.1 365.7 617.5 411.4 628.3 C 457.1 639.0 502.9 649.7 548.6 662.3 C 594.3 674.8 640.0 688.1 685.7 703.6 C 731.4 719.0 777.1 735.9 822.9 754.9 C 868.6 773.9 914.3 794.9 960.0 817.6 C 1005.7 840.4 1051.4 865.4 1097.1 891.5 C 1142.9 917.7 1188.6 945.9 1234.3 974.6 C 1280.0 1003.3 1325.7 1033.7 1371.4 1063.7 C 1417.1 1093.8 1462.9 1124.8 1508.6 1154.8 C 1554.3 1184.7 1600.0 1214.9 1645.7 1243.4 C 1691.4 1271.8 1737.1 1299.7 1782.9 1325.5 C 1828.6 1351.3 1897.1 1386.1 1920.0 1398.2 L 1920 1080 L 0 1080 Z" fill="url(#gCapa4)"/>
<path d="M 0.0 776.4 C 22.9 787.9 91.4 824.6 137.1 845.6 C 182.9 866.5 228.6 885.5 274.3 902.2 C 320.0 919.0 365.7 933.3 411.4 946.2 C 457.1 959.1 502.9 969.6 548.6 979.6 C 594.3 989.7 640.0 997.8 685.7 1006.5 C 731.4 1015.2 777.1 1022.7 822.9 1031.9 C 868.6 1041.0 914.3 1050.0 960.0 1061.3 C 1005.7 1072.6 1051.4 1084.7 1097.1 1099.4 C 1142.9 1114.1 1188.6 1130.6 1234.3 1149.5 C 1280.0 1168.3 1325.7 1189.4 1371.4 1212.3 C 1417.1 1235.2 1462.9 1260.6 1508.6 1286.8 C 1554.3 1313.1 1600.0 1341.4 1645.7 1369.6 C 1691.4 1397.7 1737.1 1427.3 1782.9 1455.7 C 1828.6 1484.1 1897.1 1525.8 1920.0 1539.8 L 1920 1080 L 0 1080 Z" fill="url(#gCapa5)"/>
<path d="M 0.0 1045.0 C 22.9 1053.3 91.4 1079.6 137.1 1094.8 C 182.9 1110.1 228.6 1123.7 274.3 1136.4 C 320.0 1149.0 365.7 1160.1 411.4 1170.7 C 457.1 1181.3 502.9 1190.6 548.6 1199.8 C 594.3 1209.1 640.0 1217.5 685.7 1226.5 C 731.4 1235.4 777.1 1243.9 822.9 1253.5 C 868.6 1263.1 914.3 1272.8 960.0 1284.0 C 1005.7 1295.1 1051.4 1306.9 1097.1 1320.3 C 1142.9 1333.7 1188.6 1348.2 1234.3 1364.2 C 1280.0 1380.3 1325.7 1397.7 1371.4 1416.5 C 1417.1 1435.3 1462.9 1455.7 1508.6 1476.9 C 1554.3 1498.2 1600.0 1521.0 1645.7 1544.1 C 1691.4 1567.3 1737.1 1591.7 1782.9 1615.9 C 1828.6 1640.1 1897.1 1677.2 1920.0 1689.4 L 1920 1080 L 0 1080 Z" fill="url(#gCapa6)"/>
<rect width="1920" height="1080" fill="url(#glow)" opacity="0.3"/>
</svg>
